# xmcd
#
# Track frame offsets:
#	150
#	12474
#	25339
#	38255
#	47636
#	55730
#	68953
#	79029
#	89176
#	99064
#	108989
#	117443
#	133996
#	146694
#	159579
#	173732
#	188889
#	201935
#	218143
#	228940
#
# Disc length: 3221 seconds
#
# Revision: 1
# Processed by: cddbd v1.5.1PL0 Copyright (c) Steve Scherf et al.
# Submitted via: audiograbber 1.83.01
#
DISCID=140c9314
DTITLE=Örvar Kristjánsson - Stefnumót
DYEAR=1997
DGENRE=
TTITLE0=Hestamannapolki
TTITLE1=Komdu inn í kofann minn
TTITLE2=Tveggjamannaræll
TTITLE3=Kötukvæði
TTITLE4=Á landstíminnu
TTITLE5=Fram til heiða
TTITLE6=Frívaktin
TTITLE7=Dansað á Hornafirði
TTITLE8=Í norðursjónum
TTITLE9=Sunnanvindur
TTITLE10=Í Þoskastríði
TTITLE11=Siglt í norður
TTITLE12=Bjórtunnupolki
TTITLE13=Stefnumót
TTITLE14=Við förum bara fetið
TTITLE15=Sestu hérna hjá mér
TTITLE16=Skafrenningur
TTITLE17=Hlín Rósalín
TTITLE18=Spánskar nætur
TTITLE19=Síðasti dans
EXTD=
EXTT0=
EXTT1=
EXTT2=
EXTT3=
EXTT4=
EXTT5=
EXTT6=
EXTT7=
EXTT8=
EXTT9=
EXTT10=
EXTT11=
EXTT12=
EXTT13=
EXTT14=
EXTT15=
EXTT16=
EXTT17=
EXTT18=
EXTT19=
PLAYORDER=
